<?xml version="1.0" encoding="UTF-8" standalone="no"?>
<svg
   width="128"
   height="64"
   viewBox="0 0 67.733 33.867"
   class="sc-bdVaJa kNFmDB"
   version="1.1"
   id="svg6"
   sodipodi:docname="oci-logo-color-horizontal.svg"
   inkscape:version="1.4.2 (ebf0e940d0, 2025-05-08)"
   xmlns:inkscape="http://www.inkscape.org/namespaces/inkscape"
   xmlns:sodipodi="http://sodipodi.sourceforge.net/DTD/sodipodi-0.dtd"
   xmlns="http://www.w3.org/2000/svg"
   xmlns:svg="http://www.w3.org/2000/svg">
  <defs
     id="defs6" />
  <sodipodi:namedview
     id="namedview6"
     pagecolor="#ffffff"
     bordercolor="#000000"
     borderopacity="0.25"
     inkscape:showpageshadow="2"
     inkscape:pageopacity="0.0"
     inkscape:pagecheckerboard="0"
     inkscape:deskcolor="#d1d1d1"
     inkscape:zoom="7.2407734"
     inkscape:cx="85.902426"
     inkscape:cy="26.861771"
     inkscape:window-width="1894"
     inkscape:window-height="1011"
     inkscape:window-x="1930"
     inkscape:window-y="56"
     inkscape:window-maximized="1"
     inkscape:current-layer="g7" />
  <g
     id="g7"
     transform="translate(0.04955,0.1541)">
    <g
       id="g3"
       transform="translate(0,-0.16555)">
      <path
         d="m 8.0371,18.802 c 5.4446,1.9951 7.6955,3.8855 9.8957,5.7742 3.3044,-5.5306 3.3747,-10.488 2.4076,-15.262 -2.3667,4.4289 -6.5089,7.5615 -12.303,9.4877 z"
         fill="#fdbe4c"
         id="path1" />
      <path
         d="m 6.0008,15.294 c 4.7427,3.3363 6.4276,5.7448 8.0641,8.1387 4.6232,-4.487 5.9743,-9.2574 6.2757,-14.119 -3.4324,3.6655 -8.2442,5.6192 -14.34,5.9801 z"
         fill="#ee654c"
         id="path2" />
      <path
         d="m 4.9416,11.379 c 3.7176,4.4501 4.7217,7.2127 5.6829,9.9485 5.627,-3.1375 8.1667,-7.3957 9.716,-12.013 -4.2641,2.6522 -9.4176,3.294 -15.399,2.0649 z"
         fill="#55b788"
         id="path3" />
    </g>
    <g
       id="g6"
       style="display:none;fill:#1a1a1a">
      <path
         fill="#fff"
         d="m 59.65,8.7924 h 3.0424 v 15.974 H 59.65 Z"
         id="path4"
         style="fill:#1a1a1a" />
      <path
         fill="#fff"
         d="m 55.289,20.66295 c -1.0462,1.1327 -2.5434,1.8426 -4.2068,1.8426 -3.1625,0 -5.7262,-2.5637 -5.7262,-5.7262 0,-3.1625 2.5637,-5.7262 5.7262,-5.7262 1.6635,0 3.1607,0.70993 4.2068,1.8426 v -3.0791 c -1.2275,-0.74324 -2.6672,-1.1713 -4.2068,-1.1713 -4.4922,0 -8.134,3.6417 -8.134,8.134 0,4.4922 3.6417,8.1341 8.134,8.1341 1.5397,0 2.9794,-0.42808 4.2068,-1.1713 z"
         id="path5"
         style="fill:#1a1a1a" />
      <path
         fill="#fff"
         d="m 32.726,8.6454 c -4.4922,0 -8.134,3.6417 -8.134,8.134 0,4.4921 3.6418,8.134 8.134,8.134 4.4922,0 8.134,-3.6418 8.134,-8.134 0,-4.4922 -3.6418,-8.134 -8.134,-8.134 z m 0,13.86 c -3.1625,0 -5.7262,-2.5637 -5.7262,-5.7261 0,-3.1625 2.5637,-5.7262 5.7262,-5.7262 3.1625,0 5.7262,2.5637 5.7262,5.7262 0,3.1625 -2.5637,5.7261 -5.7262,5.7261 z"
         id="path6"
         style="fill:#1a1a1a" />
    </g>
    <g
       id="g651"
       transform="matrix(0.17459524,0,0,0.17459524,385.77608,-6.0131472)">
      <path
         d="m -2026.1457,177.01579 c -17.432,-1.90448 -31.8076,-12.28067 -38.6849,-27.92241 -2.5274,-5.74843 -3.7151,-11.68879 -3.7151,-18.58174 0,-5.69476 0.5783,-9.42596 2.2398,-14.4504 2.2575,-6.82716 5.6588,-12.52492 10.5386,-17.654052 13.9229,-14.63446 35.7469,-18.60904 53.9416,-9.82384 13.5162,6.52625 22.684,18.586342 25.6588,33.753822 0.8443,4.30462 0.7598,12.97851 -0.1688,17.34029 -1.962,9.21573 -6.288,17.22454 -12.8466,23.7831 -6.648,6.64797 -14.781,10.99754 -23.9706,12.81943 -3.001,0.59497 -10.4307,1.01574 -12.9928,0.7358 z m 12.32,-14.61875 c 6.1646,-1.6175 11.0304,-4.51862 15.5494,-9.27094 6.4099,-6.74089 9.3656,-14.58625 9.0075,-23.90893 -0.1673,-4.35414 -0.86,-7.6084 -2.4198,-11.36781 -3.9158,-9.43743 -12.1604,-16.5517 -22.2971,-19.240362 -2.7638,-0.73306 -3.8543,-0.85079 -8,-0.86369 -4.0082,-0.0125 -5.2715,0.10692 -7.6585,0.72384 -8.4235,2.176982 -15.3249,7.056912 -19.9856,14.131502 -6.8303,10.36799 -7.169,23.82523 -0.8693,34.54303 4.8112,8.18533 13.2051,14.05019 22.7003,15.86085 3.5439,0.67581 10.1822,0.3872 13.9731,-0.60749 z"
         style="fill:#fbbc4b;stroke-width:0.32"
         id="path567" />
      <path
         d="m -1922.9675,176.76594 c -10.435,-1.4473 -19.7383,-6.02877 -27.0114,-13.30192 -6.4409,-6.44084 -10.9498,-14.86207 -12.8348,-23.97146 -0.7355,-3.55406 -0.9766,-10.85243 -0.4875,-14.75414 2.509,-20.01403 17.0615,-35.695094 37.1414,-40.021474 3.8532,-0.83022 14.3474,-0.83277 18.2323,-0.004 3.9951,0.85185 8.9578,2.5835 12.194,4.25494 l 2.846,1.4699 v 8.811402 8.811392 l -1.539,-1.43951 c -6.9919,-6.54017 -16.6404,-9.880684 -25.669,-8.887204 -7.9807,0.878182 -14.5201,3.960214 -20.0096,9.430534 -5.0901,5.07232 -8.3224,11.30206 -9.4316,18.17743 -0.6229,3.86136 -0.2576,10.29221 0.7856,13.83117 3.6783,12.47779 13.3806,21.32678 25.9844,23.69907 3.7333,0.70269 10.0921,0.49194 13.6367,-0.4519 5.2533,-1.39885 9.551,-3.64541 13.6478,-7.13405 l 2.605,-2.2184 -0.085,8.73264 -0.085,8.73264 -2.88,1.50112 c -3.3514,1.74682 -8.4495,3.51117 -12.32,4.26368 -3.1771,0.61773 -11.6907,0.88874 -14.72,0.46858 z"
         style="fill:#ec644b;stroke-width:0.32"
         id="path595" />
      <path
         d="M -1867.8409,130.53087 V 84.770868 h 8.64 8.64 v 45.760002 45.76 h -8.64 -8.64 z"
         style="fill:#54b587;stroke-width:0.32"
         id="path623" />
    </g>
  </g>
</svg>
